# xmcd
#
# Track frame offsets:
#	150
#	35711
#	73684
#	104317
#	153147
#	168833
#	203306
#	220752
#	236541
#	251435
#	279161
#
# Disc length: 3998 seconds
#
# Revision: 0
# Processed by: cddbd v1.5.2PL0 Copyright (c) Steve Scherf et al.
# Submitted via: EZCDAudioConverter 2.1.7.1
#
DISCID=870f9c0b
DTITLE=Spooky Tooth and Pierre Henry - Ceremony: An Electronic Mass
DYEAR=1900
DGENRE=
TTITLE0=Have Mercy
TTITLE1=Jubilation
TTITLE2=Confession
TTITLE3=Prayer
TTITLE4=Offering
TTITLE5=Hosanna
TTITLE6=That Was Only Yesterday [Mono Single]
TTITLE7=Waiting For The Wind [Mono Single]
TTITLE8=Feelin' Bad [Mono Single]
TTITLE9=Have Mercy [First Version]
TTITLE10=Shine A Light On Me
EXTD=
EXTT0=
EXTT1=
EXTT2=
EXTT3=
EXTT4=
EXTT5=
EXTT6=
EXTT7=
EXTT8=
EXTT9=
EXTT10=
PLAYORDER=
